<svg width="23" height="23" viewBox="0 0 23 23" fill="none" xmlns="http://www.w3.org/2000/svg">
<path d="M11.5 0.920013C5.66326 0.920013 0.920044 5.66323 0.920044 11.5C0.920044 17.3368 5.66326 22.08 11.5 22.08C17.3368 22.08 22.08 17.3368 22.08 11.5C22.08 5.66323 17.3368 0.920013 11.5 0.920013ZM11.5 1.84001C16.8394 1.84001 21.16 6.16064 21.16 11.5C21.16 11.5328 21.1577 11.5652 21.1573 11.5979C20.8631 11.5708 20.5232 11.545 20.0909 11.5297C19.4797 11.508 18.7093 11.5143 17.8358 11.5575C17.8682 11.332 17.8909 11.1032 17.8915 10.8684C17.9361 10.007 17.6468 9.20115 17.1764 8.48935C17.29 8.09664 17.4233 7.59701 17.4567 7.03029C17.4947 6.38432 17.4389 5.66803 16.9203 5.184L16.7873 5.06001H16.6059C15.3717 5.06001 14.5269 5.57669 14.0103 5.9863C13.2644 5.69758 12.4257 5.52001 11.5 5.52001C10.5692 5.52001 9.72239 5.70006 8.94579 5.9881C8.4295 5.57829 7.58397 5.06001 6.3484 5.06001H6.16782L6.03485 5.1831C5.52968 5.65218 5.48314 6.34882 5.51465 6.99165C5.54244 7.55851 5.66804 8.074 5.77969 8.48576C5.30131 9.21145 5.01422 10.0381 5.01422 10.8558C5.01422 11.0912 5.03611 11.3206 5.06813 11.5467C4.23748 11.5082 3.49701 11.5008 2.90918 11.5216C2.47692 11.5369 2.13695 11.5624 1.84274 11.5899C1.84246 11.5598 1.84004 11.5301 1.84004 11.5C1.84004 6.16064 6.16067 1.84001 11.5 1.84001ZM6.62243 6.04021C7.55052 6.12815 8.24876 6.54258 8.57204 6.82994L8.78766 7.0204L9.0536 6.91169C9.78107 6.61215 10.5925 6.44001 11.5 6.44001C12.4076 6.44001 13.2192 6.61301 13.8917 6.9072L14.1612 7.0258L14.3813 6.82994C14.7047 6.54248 15.4041 6.12793 16.3327 6.04021C16.4562 6.2449 16.5635 6.536 16.5376 6.97638C16.5066 7.50341 16.3656 8.07746 16.2591 8.41837L16.1899 8.64029L16.3273 8.82806C16.7825 9.44873 17.0146 10.1204 16.9751 10.8307L16.9742 10.8433V10.8558C16.9742 12.0037 16.5609 12.9225 15.6805 13.6033C14.8001 14.284 13.4103 14.72 11.4542 14.72C9.49818 14.72 8.10746 14.284 7.22708 13.6033C6.34669 12.9225 5.93422 12.0037 5.93422 10.8558C5.93422 10.1821 6.17753 9.44087 6.62692 8.82806L6.76168 8.64478L6.697 8.42646C6.5904 8.06404 6.45974 7.4769 6.43375 6.94673C6.41214 6.50577 6.51651 6.22705 6.62243 6.04021ZM4.08704 11.9699C4.41211 11.974 4.78472 11.9916 5.15797 12.0103C5.19364 12.1538 5.2343 12.2948 5.28375 12.4326C3.76237 12.4647 2.62422 12.6177 1.9227 12.7488C1.89304 12.5187 1.86941 12.2866 1.85622 12.0517C2.37466 12.0025 3.1055 11.9574 4.08704 11.9699ZM18.9131 11.9771C19.8939 11.9646 20.6245 12.0098 21.143 12.0588C21.1298 12.2904 21.1066 12.5192 21.0774 12.7461C20.3508 12.6129 19.1819 12.4599 17.6211 12.4353C17.6695 12.3003 17.7099 12.1616 17.7451 12.0211C18.1568 11.999 18.5585 11.9816 18.9131 11.9771ZM5.47961 12.889C5.75411 13.4391 6.14634 13.9302 6.66465 14.331C7.3733 14.879 8.29459 15.2618 9.41926 15.4666C9.27213 15.6178 9.1383 15.7838 9.01946 15.959L8.99161 15.9347C8.99414 15.9318 8.76293 16.0475 8.41751 16.0785C8.07208 16.1094 7.64599 16.1 7.2684 16.1C6.7049 16.1 6.4567 15.8338 6.06 15.3489C5.84033 15.0529 5.57253 14.8131 5.3125 14.6311C5.04625 14.4447 4.81912 14.3131 4.53805 14.2663L4.50032 14.26H4.46168C4.24702 14.26 4.0393 14.2756 3.84536 14.4972C3.74839 14.608 3.68155 14.8132 3.72497 14.9868C3.76838 15.1605 3.87824 15.2672 3.97653 15.3327C4.60522 15.7519 4.71633 16.5814 5.11036 17.3192C5.47832 18.0524 6.27245 18.4 7.08422 18.4H8.28004V20.6093C5.04524 19.4675 2.6058 16.6541 1.99278 13.2035C2.69699 13.0708 3.87625 12.9113 5.47961 12.889ZM17.4261 12.8926C19.065 12.9066 20.2773 13.0659 21.0082 13.2008C20.396 16.6527 17.9557 19.4672 14.72 20.6093V18.2158C14.72 17.4869 14.4807 16.6832 14.0642 16.0129C13.9377 15.8094 13.789 15.6169 13.6231 15.4442C14.6881 15.2338 15.5629 14.8575 16.2438 14.331C16.761 13.9311 17.1523 13.4414 17.4261 12.8926ZM10.9017 15.6858H12.19C12.5639 15.6858 12.963 15.9838 13.2825 16.498C13.602 17.0122 13.8 17.7027 13.8 18.2158V20.8833C13.0629 21.0631 12.293 21.16 11.5 21.16C10.7071 21.16 9.93724 21.0631 9.20004 20.8833V18.2158C9.20004 17.7141 9.41525 17.0252 9.75618 16.5088C10.0971 15.9924 10.5278 15.6858 10.9017 15.6858ZM5.662 16.2294C6.06025 16.6425 6.54241 17.02 7.2684 17.02C7.62682 17.02 8.07419 17.0329 8.49926 16.9949C8.50077 16.9947 8.50224 16.9941 8.50376 16.994C8.44775 17.155 8.40597 17.317 8.37079 17.48H7.08422C6.51689 17.48 6.1161 17.2751 5.93153 16.9059L5.92793 16.8996L5.92524 16.8942C5.84961 16.7538 5.75034 16.4729 5.662 16.2294Z" fill="black"/>
</svg>
