<svg width="23" height="23" viewBox="0 0 23 23" fill="none" xmlns="http://www.w3.org/2000/svg">
<path d="M7.36001 1.38C4.06295 1.38 1.38 4.06295 1.38 7.36001V15.64C1.38 18.9371 4.06295 21.62 7.36001 21.62H15.64C18.9371 21.62 21.62 18.9371 21.62 15.64V7.36001C21.62 4.06295 18.9371 1.38 15.64 1.38H7.36001ZM7.36001 2.3H15.64C18.4398 2.3 20.7 4.56022 20.7 7.36001V15.64C20.7 18.4398 18.4398 20.7 15.64 20.7H7.36001C4.56022 20.7 2.3 18.4398 2.3 15.64V7.36001C2.3 4.56022 4.56022 2.3 7.36001 2.3ZM17.02 5.06001C16.776 5.06001 16.542 5.15693 16.3695 5.32947C16.1969 5.502 16.1 5.73601 16.1 5.98001C16.1 6.224 16.1969 6.45801 16.3695 6.63054C16.542 6.80308 16.776 6.90001 17.02 6.90001C17.264 6.90001 17.498 6.80308 17.6705 6.63054C17.8431 6.45801 17.94 6.224 17.94 5.98001C17.94 5.73601 17.8431 5.502 17.6705 5.32947C17.498 5.15693 17.264 5.06001 17.02 5.06001ZM11.5 6.44001C8.71089 6.44001 6.44001 8.71089 6.44001 11.5C6.44001 14.2891 8.71089 16.56 11.5 16.56C14.2891 16.56 16.56 14.2891 16.56 11.5C16.56 8.71089 14.2891 6.44001 11.5 6.44001ZM11.5 7.36001C13.7919 7.36001 15.64 9.2081 15.64 11.5C15.64 13.7919 13.7919 15.64 11.5 15.64C9.2081 15.64 7.36001 13.7919 7.36001 11.5C7.36001 9.2081 9.2081 7.36001 11.5 7.36001Z" fill="#FCFFE7"/>
</svg>
