<svg width="23" height="23" viewBox="0 0 23 23" fill="none" xmlns="http://www.w3.org/2000/svg">
<path d="M11.5 0.920013C5.66232 0.920013 0.920044 5.66229 0.920044 11.5C0.920044 17.3377 5.66232 22.08 11.5 22.08C17.3378 22.08 22.08 17.3377 22.08 11.5C22.08 5.66229 17.3378 0.920013 11.5 0.920013ZM11.5 1.84001C16.8406 1.84001 21.16 6.15949 21.16 11.5C21.16 16.8405 16.8406 21.16 11.5 21.16C6.15952 21.16 1.84004 16.8405 1.84004 11.5C1.84004 6.15949 6.15952 1.84001 11.5 1.84001ZM7.36004 5.52001C6.60334 5.52001 5.98004 6.14331 5.98004 6.90001C5.98004 7.65672 6.60334 8.28001 7.36004 8.28001C8.11675 8.28001 8.74004 7.65672 8.74004 6.90001C8.74004 6.14331 8.11675 5.52001 7.36004 5.52001ZM7.36004 6.44001C7.61954 6.44001 7.82004 6.64051 7.82004 6.90001C7.82004 7.15951 7.61954 7.36001 7.36004 7.36001C7.10054 7.36001 6.90004 7.15951 6.90004 6.90001C6.90004 6.64051 7.10054 6.44001 7.36004 6.44001ZM6.44004 8.74001C6.31805 8.74003 6.20105 8.78849 6.11479 8.87476C6.02852 8.96102 5.98006 9.07802 5.98004 9.20001V16.1C5.98006 16.222 6.02852 16.339 6.11479 16.4253C6.20105 16.5115 6.31805 16.56 6.44004 16.56H8.28004C8.40204 16.56 8.51904 16.5115 8.6053 16.4253C8.69156 16.339 8.74003 16.222 8.74004 16.1V9.20001C8.74003 9.07802 8.69156 8.96102 8.6053 8.87476C8.51904 8.78849 8.40204 8.74003 8.28004 8.74001H6.44004ZM10.12 8.74001C9.99805 8.74003 9.88105 8.78849 9.79479 8.87476C9.70852 8.96102 9.66006 9.07802 9.66004 9.20001V16.1C9.66006 16.222 9.70852 16.339 9.79479 16.4253C9.88105 16.5115 9.99805 16.56 10.12 16.56H11.96C12.082 16.56 12.199 16.5115 12.2853 16.4253C12.3716 16.339 12.42 16.222 12.42 16.1V12.65C12.42 12.0154 12.9355 11.5 13.57 11.5C14.2046 11.5 14.72 12.0154 14.72 12.65V13.8V16.1C14.7201 16.222 14.7685 16.339 14.8548 16.4253C14.9411 16.5115 15.058 16.56 15.18 16.56H17.02C17.142 16.56 17.259 16.5115 17.3453 16.4253C17.4316 16.339 17.48 16.222 17.48 16.1V12.19C17.48 10.29 15.93 8.74001 14.03 8.74001C13.4383 8.74001 12.9075 8.93144 12.42 9.19552C12.4188 9.07431 12.3699 8.95846 12.2837 8.87317C12.1976 8.78787 12.0813 8.74002 11.96 8.74001H10.12ZM6.90004 9.66001H7.82004V15.64H6.90004V9.66001ZM10.58 9.66001H11.5V10.0356C11.5001 10.1258 11.5266 10.214 11.5764 10.2893C11.6261 10.3645 11.6969 10.4235 11.7799 10.4588C11.8629 10.4941 11.9545 10.5043 12.0432 10.488C12.132 10.4717 12.214 10.4296 12.279 10.3671C12.7348 9.92925 13.3477 9.66001 14.03 9.66001C15.4329 9.66001 16.56 10.7872 16.56 12.19V15.64H15.64V13.8V12.65C15.64 11.5136 14.7065 10.58 13.57 10.58C12.4336 10.58 11.5 11.5136 11.5 12.65V15.64H10.58V9.66001Z" fill="#FCFFE7"/>
</svg>
