<svg width="23" height="23" viewBox="0 0 23 23" fill="none" xmlns="http://www.w3.org/2000/svg">
<g clip-path="url(#clip0_5_113)">
<path d="M15.7407 2.51562C12.9897 2.51562 10.7525 4.75273 10.7525 7.50375C10.7525 7.66906 10.7939 7.83078 10.81 7.9925C7.40856 7.66727 4.40059 6.02852 2.35754 3.52187C2.26231 3.40148 2.11497 3.3368 1.96044 3.34758C1.8077 3.35836 1.67114 3.44641 1.59567 3.57937C1.16622 4.31789 0.920045 5.16781 0.920045 6.08062C0.920045 7.1857 1.31536 8.19734 1.92629 9.0275C1.8077 8.97539 1.67833 8.94664 1.56692 8.88375C1.42497 8.80828 1.25426 8.81187 1.1159 8.89453C0.977545 8.97719 0.893092 9.12633 0.891295 9.28625V9.34375C0.891295 11.0382 1.76817 12.5098 3.06192 13.4119C3.04754 13.4101 3.03317 13.4155 3.01879 13.4119C2.86067 13.3849 2.70075 13.4406 2.59473 13.561C2.48872 13.6814 2.45458 13.8485 2.50129 14.0012C3.0152 15.5987 4.32692 16.8187 5.95129 17.2644C4.65754 18.0334 3.15715 18.4862 1.53817 18.4862C1.18778 18.4862 0.851764 18.4683 0.517545 18.4287C0.30192 18.4 0.0952793 18.5258 0.0234044 18.7306C-0.0502675 18.9355 0.0305919 19.1637 0.21567 19.2769C2.29106 20.6084 4.75458 21.39 7.40317 21.39C11.6959 21.39 15.0632 19.5967 17.3219 17.0344C19.5806 14.472 20.7575 11.1442 20.7575 8.03562C20.7575 7.90445 20.7468 7.77687 20.7432 7.6475C21.5859 7.00242 22.3388 6.24594 22.9282 5.36187C23.045 5.19117 23.0324 4.96297 22.8976 4.80484C22.7647 4.64672 22.54 4.5982 22.3532 4.68625C22.116 4.79227 21.8393 4.80305 21.5913 4.8875C21.9183 4.45086 22.1986 3.98008 22.3675 3.45C22.425 3.26852 22.3622 3.06906 22.213 2.95047C22.0639 2.83367 21.8554 2.8193 21.6919 2.91812C20.9067 3.38352 20.037 3.71055 19.1188 3.91C18.2275 3.07625 17.0542 2.51562 15.7407 2.51562ZM15.7407 3.43562C16.914 3.43562 17.9742 3.93695 18.7163 4.72937C18.8277 4.84437 18.9912 4.89289 19.1475 4.85875C19.7477 4.74016 20.3173 4.56586 20.8725 4.34125C20.5527 4.7725 20.1574 5.14086 19.6938 5.41937C19.4836 5.5218 19.3847 5.76437 19.462 5.98539C19.5375 6.20461 19.7675 6.33219 19.9957 6.28187C20.4557 6.22617 20.8654 6.0393 21.3038 5.9225C20.9103 6.34836 20.479 6.73289 20.01 7.0725C19.8825 7.16594 19.8124 7.31687 19.8232 7.475C19.8304 7.66187 19.8375 7.84695 19.8375 8.03562C19.8375 10.9106 18.7343 14.0318 16.6319 16.4162C14.5296 18.8007 11.4425 20.47 7.40317 20.47C5.56856 20.47 3.83637 20.0639 2.27129 19.3487C4.21192 19.1996 6.00161 18.5132 7.44629 17.3794C7.59723 17.259 7.65653 17.0577 7.59544 16.8745C7.53434 16.6912 7.36544 16.5654 7.17317 16.56C5.65661 16.533 4.38622 15.6508 3.70879 14.4037C3.73395 14.4037 3.75551 14.4037 3.78067 14.4037C4.23528 14.4037 4.6845 14.3462 5.10317 14.2312C5.30442 14.172 5.44278 13.9851 5.43559 13.7748C5.4284 13.5646 5.27926 13.3849 5.07442 13.34C3.43747 13.0094 2.2102 11.6761 1.92629 10.0194C2.38989 10.1793 2.86426 10.3051 3.37817 10.3212C3.5884 10.3338 3.77887 10.2027 3.84356 10.0032C3.90825 9.80375 3.82919 9.58453 3.65129 9.47312C2.55879 8.7418 1.84004 7.49656 1.84004 6.08062C1.84004 5.55594 1.97661 5.07437 2.15629 4.61437C4.45629 7.13898 7.67629 8.81547 11.3132 8.99875C11.4569 9.00594 11.5971 8.94664 11.6905 8.83703C11.784 8.72562 11.8199 8.57828 11.7875 8.43812C11.7175 8.13984 11.6725 7.82359 11.6725 7.50375C11.6725 5.25047 13.4874 3.43562 15.7407 3.43562Z" fill="black"/>
</g>
<defs>
<clipPath id="clip0_5_113">
<rect width="23" height="23" fill="white"/>
</clipPath>
</defs>
</svg>
